<svg xmlns="http://www.w3.org/2000/svg" viewBox="0 0 520 112" class="a"><style>.a{fill:none;}.b{stroke-linejoin:round;stroke-width:16;stroke:#000;}</style><clipPath><path d="m0 0l520 0 0 112 -520 0 0-112z"/></clipPath><g clip-path="url(#p.0)"><path d="m0 0l520 0 0 112 -520 0z" class="a"/><path d="m64 8l-56 0 0 96 48 0 0-56 -24 0" class="a"/><path d="m64 8l-56 0 0 96 48 0 0-56 -24 0" class="b"/><path d="m152 0l0 112" class="a"/><path d="m152 0l0 112" class="b"/><path d="m80 0l0 104 24 0 24 0 0-104" class="a"/><path d="m80 0l0 104 24 0 24 0 0-104" class="b"/><path d="m248 0l0 112" class="a"/><path d="m248 0l0 112" class="b"/><path d="m176 48l48 0 0 56 -48 0" class="a"/><path d="m176 48l48 0 0 56 -48 0" class="b"/><path d="m272 104l0-56 48 0 0 56z" class="a"/><path d="m272 104l0-56 48 0 0 56z" class="b"/><path d="m392 48l-48 0 0 56 48 0" class="a"/><path d="m392 48l-48 0 0 56 48 0" class="b"/><path d="m520 48l-48 0 0 24 40 0 0 32 -48 0" class="a"/><path d="m520 48l-48 0 0 24 40 0 0 32 -48 0" class="b"/><path d="m408 0l0 112" class="a"/><path d="m408 0l0 112" class="b"/><path d="m448 48l-40 24 0 8 40 24" class="a"/><path d="m448 48l-40 24 0 8 40 24" class="b"/><path d="m176 8l48 0 0 40 -48 0" class="a"/><path d="m176 8l48 0 0 40 -48 0" class="b"/><path d="m176 0l0 112" class="a"/><path d="m176 0l0 112" class="b"/></g></svg>