<svg xmlns="http://www.w3.org/2000/svg" viewBox="0 0 504 272" class="a"><style>.a{fill:none;}.b{stroke-linejoin:round;stroke-width:16;stroke:#000;}.c{fill:#fff;}</style><clipPath id="p.0"><path d="m0 0l504 0 0 272 -504 0 0-272z"/></clipPath><g clip-path="url(#p.0)"><path d="m0 0l504 0 0 272 -504 0z" class="a"/><path d="m152 112l0-64 -24 24 -24-24 0 64" class="a"/><path d="m152 112l0-64 -24 24 -24-24 0 64" class="b"/><path d="m408 8l-56 0 0 96 48 0 0-56 -24 0" class="a"/><path d="m408 8l-56 0 0 96 48 0 0-56 -24 0" class="b"/><path d="m496 40l0 72" class="a"/><path d="m496 40l0 72" class="b"/><path d="m496 16l0-16" class="c"/><path d="m496 16l0-16" class="b"/><path d="m424 40l0 64 24 0 24 0 0-64" class="a"/><path d="m424 40l0 64 24 0 24 0 0-64" class="b"/><path d="m200 240l0-64 -24 24 -24-24 0 64" class="a"/><path d="m200 240l0-64 -24 24 -24-24 0 64" class="b"/><path d="m296 128l0 112" class="a"/><path d="m296 128l0 112" class="b"/><path d="m32 128l0 112" class="a"/><path d="m32 128l0 112" class="b"/><path d="m0 136l64 0" class="a"/><path d="m0 136l64 0" class="b"/><path d="m136 232l-56 0 0-56 48 0 0 33 -24 0" class="a"/><path d="m136 232l-56 0 0-56 48 0 0 33 -24 0" class="b"/><path d="m312 176l56 0 0 56 -48 0 0-33 24 0" class="a"/><path d="m312 176l56 0 0 56 -48 0 0-33 24 0" class="b"/><path d="m384 176l48 0" class="a"/><path d="m384 176l48 0" class="b"/><path d="m504 232l-56 0 0-56 48 0 0 33 -24 0" class="a"/><path d="m504 232l-56 0 0-56 48 0 0 33 -24 0" class="b"/><path d="m408 128l0 104 24 0" class="a"/><path d="m408 128l0 104 24 0" class="b"/><path d="m224 272l0-96 48 0 0 56 -48 0" class="a"/><path d="m224 272l0-96 48 0 0 56 -48 0" class="b"/><path d="m248 0l0 112" class="a"/><path d="m248 0l0 112" class="b"/><path d="m176 144l0-96 48 0 0 56 -48 0" class="a"/><path d="m176 144l0-96 48 0 0 56 -48 0" class="b"/><path d="m328 104l-56 0 0-56 48 0 0 33 -24 0" class="a"/><path d="m328 104l-56 0 0-56 48 0 0 33 -24 0" class="b"/><path d="m80 40l0 72" class="a"/><path d="m80 40l0 72" class="b"/><path d="m80 16l0-16" class="c"/><path d="m80 16l0-16" class="b"/><path d="m64 8l-56 0 0 40 48 0 0 56 -56 0" class="a"/><path d="m64 8l-56 0 0 40 48 0 0 56 -56 0" class="b"/></g></svg>