<svg xmlns="http://www.w3.org/2000/svg" viewBox="0 0 352 232" class="a"><style>.a{fill:none;}.b{stroke-linejoin:round;stroke-width:16;stroke:#fff;}</style><clipPath><path d="m0 0l352 0 0 232 -352 0 0-232z"/></clipPath><g clip-path="url(#p.0)"><path d="m0 0l352 0 0 232 -352 0z" class="a"/><path d="m160 8l-56 0 0 96 48 0 0-56 -24 0" class="a"/><path d="m160 8l-56 0 0 96 48 0 0-56 -24 0" class="b"/><path d="m248 0l0 112" class="a"/><path d="m248 0l0 112" class="b"/><path d="m176 0l0 104 24 0 24 0 0-104" class="a"/><path d="m176 0l0 104 24 0 24 0 0-104" class="b"/><path d="m80 120l0 112" class="a"/><path d="m80 120l0 112" class="b"/><path d="m104 224l0-56 48 0 0 56z" class="a"/><path d="m104 224l0-56 48 0 0 56z" class="b"/><path d="m224 168l-48 0 0 56 48 0" class="a"/><path d="m224 168l-48 0 0 56 48 0" class="b"/><path d="m352 168l-48 0 0 24 40 0 0 32 -48 0" class="a"/><path d="m352 168l-48 0 0 24 40 0 0 32 -48 0" class="b"/><path d="m240 120l0 112" class="a"/><path d="m240 120l0 112" class="b"/><path d="m280 168l-40 24 0 8 40 24" class="a"/><path d="m280 168l-40 24 0 8 40 24" class="b"/><path d="m8 168l48 0 0 56 -48 0" class="a"/><path d="m8 168l48 0 0 56 -48 0" class="b"/><path d="m8 128l48 0 0 40 -48 0" class="a"/><path d="m8 128l48 0 0 40 -48 0" class="b"/><path d="m8 120l0 112" class="a"/><path d="m8 120l0 112" class="b"/></g></svg>